BioRhyme-Bold.ufo
<glyph name="exclam" format="1">
  <advance width="258"/>
  <unicode hex="0021"/>
  <outline>
    <contour>
      <point x="153" y="149" type="line"/>
      <point x="164" y="260" type="line" smooth="yes"/>
      <point x="175" y="367"/>
      <point x="211" y="447"/>
      <point x="211" y="493" type="curve"/>
      <point x="211" y="533"/>
      <point x="189" y="572"/>
      <point x="129" y="572" type="curve"/>
      <point x="69" y="572"/>
      <point x="48" y="533"/>
      <point x="48" y="493" type="curve"/>
      <point x="48" y="447"/>
      <point x="77" y="365"/>
      <point x="96" y="260" type="curve" smooth="yes"/>
      <point x="107" y="149" type="line"/>
    </contour>
    <contour>
      <point x="85" y="121"/>
      <point x="49" y="94"/>
      <point x="49" y="54" type="curve"/>
      <point x="49" y="17"/>
      <point x="85" y="-10"/>
      <point x="129" y="-10" type="curve"/>
      <point x="176" y="-10"/>
      <point x="209" y="17"/>
      <point x="209" y="54" type="curve"/>
      <point x="209" y="94"/>
      <point x="176" y="121"/>
      <point x="129" y="121" type="curve"/>
    </contour>
  </outline>
</glyph>
<glyph name="percent" format="1">
  <advance width="674"/>
  <unicode hex="0025"/>
  <outline>
    <contour>
      <point x="602" y="449" type="line"/>
      <point x="543" y="507" type="line"/>
      <point x="69" y="24" type="line"/>
      <point x="128" y="-34" type="line"/>
    </contour>
    <contour>
      <point x="241" y="240"/>
      <point x="302" y="293"/>
      <point x="302" y="366" type="curve" smooth="yes"/>
      <point x="302" y="444"/>
      <point x="241" y="491"/>
      <point x="166" y="491" type="curve" smooth="yes"/>
      <point x="96" y="491"/>
      <point x="28" y="443"/>
      <point x="28" y="366" type="curve" smooth="yes"/>
      <point x="28" y="292"/>
      <point x="96" y="240"/>
      <point x="166" y="240" type="curve" smooth="yes"/>
    </contour>
    <contour>
      <point x="143" y="325"/>
      <point x="122" y="342"/>
      <point x="122" y="366" type="curve" smooth="yes"/>
      <point x="122" y="392"/>
      <point x="143" y="407"/>
      <point x="166" y="407" type="curve" smooth="yes"/>
      <point x="190" y="407"/>
      <point x="209" y="392"/>
      <point x="209" y="366" type="curve" smooth="yes"/>
      <point x="209" y="342"/>
      <point x="190" y="325"/>
      <point x="166" y="325" type="curve" smooth="yes"/>
    </contour>
    <contour>
      <point x="579" y="-18"/>
      <point x="646" y="30"/>
      <point x="646" y="107" type="curve" smooth="yes"/>
      <point x="646" y="181"/>
      <point x="579" y="233"/>
      <point x="509" y="233" type="curve" smooth="yes"/>
      <point x="434" y="233"/>
      <point x="372" y="180"/>
      <point x="372" y="107" type="curve" smooth="yes"/>
      <point x="372" y="29"/>
      <point x="434" y="-18"/>
      <point x="509" y="-18" type="curve" smooth="yes"/>
    </contour>
    <contour>
      <point x="485" y="66"/>
      <point x="466" y="81"/>
      <point x="466" y="107" type="curve" smooth="yes"/>
      <point x="466" y="131"/>
      <point x="485" y="149"/>
      <point x="509" y="149" type="curve" smooth="yes"/>
      <point x="531" y="149"/>
      <point x="553" y="132"/>
      <point x="553" y="107" type="curve" smooth="yes"/>
      <point x="553" y="82"/>
      <point x="531" y="66"/>
      <point x="509" y="66" type="curve" smooth="yes"/>
    </contour>
  </outline>
</glyph>
<glyph name="ampersand" format="1">
  <advance width="615"/>
  <unicode hex="0026"/>
  <outline>
    <contour>
      <point x="751" y="-189"/>
      <point x="815" y="-164"/>
      <point x="864" y="-134" type="curve"/>
      <point x="819" y="-35" type="line"/>
      <point x="774" y="-67"/>
      <point x="715" y="-80"/>
      <point x="665" y="-80" type="curve" smooth="yes"/>
      <point x="428" y="-80"/>
      <point x="314" y="178"/>
      <point x="314" y="360" type="curve" smooth="yes"/>
      <point x="314" y="403"/>
      <point x="327" y="432"/>
      <point x="353" y="432" type="curve" smooth="yes"/>
      <point x="369" y="432"/>
      <point x="382" y="423"/>
      <point x="382" y="408" type="curve" smooth="yes"/>
      <point x="382" y="379"/>
      <point x="342" y="335"/>
      <point x="250" y="319" type="curve" smooth="yes"/>
      <point x="100" y="293"/>
      <point x="20" y="232"/>
      <point x="20" y="143" type="curve" smooth="yes"/>
      <point x="20" y="47"/>
      <point x="116" y="-13"/>
      <point x="275" y="-12" type="curve" smooth="yes"/>
      <point x="495" y="-11"/>
      <point x="592" y="118"/>
      <point x="592" y="210" type="curve" smooth="yes"/>
      <point x="592" y="264"/>
      <point x="576" y="288"/>
      <point x="556" y="320" type="curve"/>
      <point x="453" y="275" type="line"/>
      <point x="468" y="255"/>
      <point x="476" y="237"/>
      <point x="476" y="211" type="curve" smooth="yes"/>
      <point x="476" y="132"/>
      <point x="384" y="84"/>
      <point x="275" y="84" type="curve" smooth="yes"/>
      <point x="194" y="84"/>
      <point x="143" y="103"/>
      <point x="143" y="145" type="curve" smooth="yes"/>
      <point x="143" y="189"/>
      <point x="183" y="213"/>
      <point x="276" y="229" type="curve" smooth="yes"/>
      <point x="412" y="252"/>
      <point x="500" y="327"/>
      <point x="500" y="408" type="curve" smooth="yes"/>
      <point x="500" y="475"/>
      <point x="447" y="528"/>
      <point x="356" y="528" type="curve" smooth="yes"/>
      <point x="258" y="528"/>
      <point x="191" y="452"/>
      <point x="191" y="358" type="curve" smooth="yes"/>
      <point x="191" y="129"/>
      <point x="345" y="-189"/>
      <point x="665" y="-189" type="curve" smooth="yes"/>
    </contour>
  </outline>
</glyph>
<glyph name="quotesingle" format="1">
  <advance width="174"/>
  <unicode hex="0027"/>
  <outline>
    <contour>
      <point x="24" y="360" type="line"/>
      <point x="95" y="347" type="line"/>
      <point x="166" y="536" type="line"/>
      <point x="51" y="562" type="line"/>
    </contour>
  </outline>
</glyph>
<glyph name="parenleft" format="1">
  <advance width="268"/>
  <unicode hex="0028"/>
  <outline>
    <contour>
      <point x="293" y="-52" type="line"/>
      <point x="249" y="-14"/>
      <point x="139" y="93"/>
      <point x="139" y="265" type="curve" smooth="yes"/>
      <point x="139" y="437"/>
      <point x="237" y="531"/>
      <point x="293" y="580" type="curve"/>
      <point x="267" y="620" type="line"/>
      <point x="156" y="563"/>
      <point x="28" y="458"/>
      <point x="28" y="265" type="curve" smooth="yes"/>
      <point x="28" y="72"/>
      <point x="169" y="-45"/>
      <point x="267" y="-90" type="curve"/>
    </contour>
  </outline>
</glyph>
<glyph name="period" format="1">
  <advance width="233"/>
  <unicode hex="002E"/>
  <outline>
    <contour>
      <point x="164" y="-10"/>
      <point x="197" y="17"/>
      <point x="197" y="54" type="curve"/>
      <point x="197" y="94"/>
      <point x="164" y="121"/>
      <point x="117" y="121" type="curve"/>
      <point x="73" y="121"/>
      <point x="37" y="94"/>
      <point x="37" y="54" type="curve"/>
      <point x="37" y="17"/>
      <point x="73" y="-10"/>
      <point x="117" y="-10" type="curve"/>
    </contour>
  </outline>
</glyph>
<glyph name="zero" format="1">
  <advance width="577"/>
  <unicode hex="0030"/>
  <outline>
    <contour>
      <point x="414" y="-10"/>
      <point x="551" y="69"/>
      <point x="551" y="235" type="curve"/>
      <point x="551" y="401"/>
      <point x="415" y="480"/>
      <point x="289" y="480" type="curve" smooth="yes"/>
      <point x="164" y="480"/>
      <point x="27" y="401"/>
      <point x="27" y="235" type="curve"/>
      <point x="27" y="69"/>
      <point x="162" y="-10"/>
      <point x="289" y="-10" type="curve"/>
    </contour>
    <contour>
      <point x="208" y="80"/>
      <point x="150" y="140"/>
      <point x="150" y="235" type="curve"/>
      <point x="150" y="330"/>
      <point x="209" y="390"/>
      <point x="289" y="390" type="curve" smooth="yes"/>
      <point x="371" y="390"/>
      <point x="428" y="330"/>
      <point x="428" y="235" type="curve"/>
      <point x="428" y="140"/>
      <point x="369" y="80"/>
      <point x="289" y="80" type="curve" smooth="yes"/>
    </contour>
    <contour>
      <point x="330" y="170"/>
      <point x="357" y="197"/>
      <point x="357" y="234" type="curve"/>
      <point x="357" y="274"/>
      <point x="330" y="301"/>
      <point x="288" y="301" type="curve"/>
      <point x="249" y="301"/>
      <point x="219" y="274"/>
      <point x="219" y="234" type="curve"/>
      <point x="219" y="197"/>
      <point x="249" y="170"/>
      <point x="288" y="170" type="curve"/>
    </contour>
  </outline>
</glyph>
<glyph name="four" format="1">
  <advance width="501"/>
  <unicode hex="0034"/>
  <outline>
    <contour>
      <point x="404" y="480" type="line"/>
      <point x="290" y="480" type="line"/>
      <point x="14" y="187" type="line"/>
      <point x="125" y="178" type="line"/>
    </contour>
    <contour>
      <point x="491" y="91" type="line"/>
      <point x="491" y="187" type="line"/>
      <point x="14" y="187" type="line"/>
      <point x="14" y="91" type="line"/>
    </contour>
    <contour>
      <point x="287" y="-10" type="line"/>
      <point x="402" y="-10" type="line"/>
      <point x="402" y="480" type="line"/>
      <point x="287" y="480" type="line"/>
    </contour>
  </outline>
</glyph>
<glyph name="five" format="1">
  <advance width="476"/>
  <unicode hex="0035"/>
  <outline>
    <contour>
      <point x="56" y="372" type="line"/>
      <point x="430" y="372" type="line"/>
      <point x="430" y="469" type="line"/>
      <point x="56" y="469" type="line"/>
    </contour>
    <contour>
      <point x="447" y="251"/>
      <point x="347" y="298"/>
      <point x="252" y="301" type="curve" smooth="yes"/>
      <point x="187" y="303"/>
      <point x="112" y="285"/>
      <point x="56" y="263" type="curve"/>
      <point x="56" y="172" type="line"/>
      <point x="112" y="188"/>
      <point x="164" y="205"/>
      <point x="226" y="204" type="curve" smooth="yes"/>
      <point x="290" y="204"/>
      <point x="328" y="179"/>
      <point x="328" y="144" type="curve" smooth="yes"/>
      <point x="328" y="94"/>
      <point x="278" y="75"/>
      <point x="231" y="75" type="curve" smooth="yes"/>
      <point x="182" y="75"/>
      <point x="117" y="99"/>
      <point x="56" y="138" type="curve"/>
      <point x="19" y="42" type="line"/>
      <point x="67" y="15"/>
      <point x="131" y="-16"/>
      <point x="230" y="-22" type="curve" smooth="yes"/>
      <point x="351" y="-30"/>
      <point x="447" y="48"/>
      <point x="447" y="144" type="curve" smooth="yes"/>
    </contour>
    <contour>
      <point x="57" y="214" type="line"/>
      <point x="173" y="243" type="line"/>
      <point x="173" y="469" type="line"/>
      <point x="57" y="469" type="line"/>
    </contour>
  </outline>
</glyph>
<glyph name="nine" format="1">
  <advance width="485"/>
  <unicode hex="0039"/>
  <outline>
    <contour>
      <point x="355" y="-25"/>
      <point x="454" y="99"/>
      <point x="454" y="245" type="curve" smooth="yes"/>
      <point x="454" y="394"/>
      <point x="362" y="481"/>
      <point x="218" y="482" type="curve" smooth="yes"/>
      <point x="109" y="483"/>
      <point x="22" y="410"/>
      <point x="22" y="317" type="curve" smooth="yes"/>
      <point x="22" y="210"/>
      <point x="112" y="157"/>
      <point x="210" y="157" type="curve" smooth="yes"/>
      <point x="283" y="158"/>
      <point x="331" y="177"/>
      <point x="393" y="215" type="curve"/>
      <point x="389" y="302" type="line"/>
      <point x="330" y="269"/>
      <point x="274" y="254"/>
      <point x="220" y="254" type="curve" smooth="yes"/>
      <point x="179" y="254"/>
      <point x="138" y="275"/>
      <point x="137" y="318" type="curve" smooth="yes"/>
      <point x="137" y="363"/>
      <point x="173" y="385"/>
      <point x="218" y="385" type="curve" smooth="yes"/>
      <point x="282" y="385"/>
      <point x="338" y="334"/>
      <point x="338" y="245" type="curve" smooth="yes"/>
      <point x="338" y="144"/>
      <point x="272" y="71"/>
      <point x="183" y="71" type="curve" smooth="yes"/>
      <point x="137" y="71"/>
      <point x="101" y="85"/>
      <point x="68" y="104" type="curve"/>
      <point x="32" y="15" type="line"/>
      <point x="67" y="-6"/>
      <point x="116" y="-25"/>
      <point x="189" y="-25" type="curve" smooth="yes"/>
    </contour>
  </outline>
</glyph>
<glyph name="B" format="1">
  <advance width="595"/>
  <unicode hex="0042"/>
  <outline>
    <contour>
      <point x="377" y="0" type="line" smooth="yes"/>
      <point x="513" y="0"/>
      <point x="583" y="55"/>
      <point x="583" y="147" type="curve" smooth="yes"/>
      <point x="583" y="269"/>
      <point x="455" y="287"/>
      <point x="364" y="287" type="curve"/>
      <point x="365" y="240" type="line"/>
      <point x="432" y="240"/>
      <point x="542" y="277"/>
      <point x="542" y="379" type="curve" smooth="yes"/>
      <point x="542" y="460"/>
      <point x="482" y="520"/>
      <point x="360" y="520" type="curve" smooth="yes"/>
      <point x="25" y="520" type="line"/>
      <point x="25" y="424" type="line"/>
      <point x="354" y="424" type="line" smooth="yes"/>
      <point x="383" y="424"/>
      <point x="420" y="411"/>
      <point x="420" y="363" type="curve" smooth="yes"/>
      <point x="420" y="317"/>
      <point x="385" y="302"/>
      <point x="331" y="302" type="curve" smooth="yes"/>
      <point x="191" y="302" type="line"/>
      <point x="191" y="215" type="line"/>
      <point x="387" y="215" type="line" smooth="yes"/>
      <point x="434" y="215"/>
      <point x="461" y="200"/>
      <point x="461" y="157" type="curve" smooth="yes"/>
      <point x="461" y="110"/>
      <point x="426" y="96"/>
      <point x="378" y="96" type="curve" smooth="yes"/>
      <point x="25" y="96" type="line"/>
      <point x="25" y="0" type="line"/>
    </contour>
    <contour>
      <point x="233" y="53" type="line"/>
      <point x="233" y="464" type="line"/>
      <point x="110" y="464" type="line"/>
      <point x="110" y="53" type="line"/>
    </contour>
    <contour>
      <point x="272" y="527" type="move" name="top"/>
    </contour>
    <contour>
      <point x="272" y="0" type="move" name="bottom"/>
    </contour>
  </outline>
</glyph>
<glyph name="C" format="1">
  <advance width="580"/>
  <unicode hex="0043"/>
  <outline>
    <contour>
      <point x="397" y="-10"/>
      <point x="496" y="33"/>
      <point x="554" y="123" type="curve"/>
      <point x="476" y="188" type="line"/>
      <point x="434" y="129"/>
      <point x="380" y="90"/>
      <point x="309" y="90" type="curve" smooth="yes"/>
      <point x="215" y="90"/>
      <point x="153" y="157"/>
      <point x="153" y="258" type="curve" smooth="yes"/>
      <point x="153" y="365"/>
      <point x="226" y="435"/>
      <point x="314" y="435" type="curve" smooth="yes"/>
      <point x="385" y="435"/>
      <point x="443" y="386"/>
      <point x="469" y="331" type="curve"/>
      <point x="550" y="335" type="line"/>
      <point x="550" y="520" type="line"/>
      <point x="440" y="520" type="line"/>
      <point x="440" y="415" type="line"/>
      <point x="495" y="399" type="line"/>
      <point x="455" y="480"/>
      <point x="385" y="530"/>
      <point x="282" y="530" type="curve" smooth="yes"/>
      <point x="155" y="530"/>
      <point x="25" y="423"/>
      <point x="25" y="258" type="curve" smooth="yes"/>
      <point x="25" y="99"/>
      <point x="154" y="-10"/>
      <point x="309" y="-10" type="curve" smooth="yes"/>
    </contour>
    <contour>
      <point x="304" y="534" type="move" name="top"/>
    </contour>
    <contour>
      <point x="304" y="-10" type="move" name="bottom"/>
    </contour>
  </outline>
</glyph>
<glyph name="E" format="1">
  <advance width="627"/>
  <unicode hex="0045"/>
  <outline>
    <contour>
      <point x="573" y="0" type="line"/>
      <point x="573" y="193" type="line"/>
      <point x="465" y="193" type="line"/>
      <point x="465" y="96" type="line"/>
      <point x="25" y="96" type="line"/>
      <point x="25" y="0" type="line"/>
    </contour>
    <contour>
      <point x="231" y="53" type="line"/>
      <point x="231" y="458" type="line"/>
      <point x="109" y="458" type="line"/>
      <point x="109" y="53" type="line"/>
    </contour>
    <contour>
      <point x="364" y="206" type="line"/>
      <point x="364" y="302" type="line"/>
      <point x="153" y="302" type="line"/>
      <point x="153" y="206" type="line"/>
    </contour>
    <contour>
      <point x="404" y="151" type="line"/>
      <point x="404" y="357" type="line"/>
      <point x="308" y="357" type="line"/>
      <point x="308" y="151" type="line"/>
    </contour>
    <contour>
      <point x="573" y="327" type="line"/>
      <point x="573" y="520" type="line"/>
      <point x="25" y="520" type="line"/>
      <point x="25" y="424" type="line"/>
      <point x="465" y="424" type="line"/>
      <point x="465" y="327" type="line"/>
    </contour>
    <contour>
      <point x="574" y="-2" type="move" name="ogonek"/>
    </contour>
    <contour>
      <point x="295" y="-2" type="move" name="bottom"/>
    </contour>
    <contour>
      <point x="295" y="527" type="move" name="top"/>
    </contour>
  </outline>
</glyph>
<glyph name="J" format="1">
  <advance width="457"/>
  <unicode hex="004A"/>
  <outline>
    <contour>
      <point x="279" y="-10"/>
      <point x="366" y="64"/>
      <point x="366" y="179" type="curve" smooth="yes"/>
      <point x="366" y="468" type="line"/>
      <point x="245" y="468" type="line"/>
      <point x="246" y="187" type="line" smooth="yes"/>
      <point x="246" y="125"/>
      <point x="212" y="94"/>
      <point x="171" y="91" type="curve" smooth="yes"/>
      <point x="121" y="89"/>
      <point x="76" y="132"/>
      <point x="55" y="156" type="curve"/>
      <point x="-7" y="70" type="line"/>
      <point x="24" y="35"/>
      <point x="88" y="-10"/>
      <point x="177" y="-10" type="curve" smooth="yes"/>
    </contour>
    <contour>
      <point x="451" y="424" type="line"/>
      <point x="451" y="520" type="line"/>
      <point x="106" y="520" type="line"/>
      <point x="106" y="424" type="line"/>
    </contour>
    <contour>
      <point x="325" y="520" type="move" name="top"/>
    </contour>
    <contour>
      <point x="178" y="-12" type="move" name="bottom"/>
    </contour>
  </outline>
</glyph>
<glyph name="Q" format="1">
  <advance width="628"/>
  <unicode hex="0051"/>
  <outline>
    <contour>
      <point x="472" y="-10"/>
      <point x="592" y="110"/>
      <point x="592" y="260" type="curve"/>
      <point x="592" y="410"/>
      <point x="472" y="530"/>
      <point x="309" y="530" type="curve"/>
      <point x="145" y="530"/>
      <point x="25" y="410"/>
      <point x="25" y="260" type="curve"/>
      <point x="25" y="110"/>
      <point x="145" y="-10"/>
      <point x="309" y="-10" type="curve"/>
    </contour>
    <contour>
      <point x="606" y="-152"/>
      <point x="646" y="-96"/>
      <point x="662" y="-38" type="curve"/>
      <point x="577" y="-9" type="line"/>
      <point x="568" y="-42"/>
      <point x="555" y="-56"/>
      <point x="529" y="-56" type="curve" smooth="yes"/>
      <point x="500" y="-56"/>
      <point x="481" y="-36"/>
      <point x="439" y="54" type="curve"/>
      <point x="391" y="157" type="line"/>
      <point x="340" y="265"/>
      <point x="271" y="285"/>
      <point x="177" y="285" type="curve" smooth="yes"/>
      <point x="150" y="285" type="line"/>
      <point x="150" y="198" type="line"/>
      <point x="177" y="198" type="line" smooth="yes"/>
      <point x="241" y="198"/>
      <point x="262" y="173"/>
      <point x="290" y="115" type="curve"/>
      <point x="337" y="17" type="line"/>
      <point x="396" y="-106"/>
      <point x="447" y="-152"/>
      <point x="529" y="-152" type="curve" smooth="yes"/>
    </contour>
    <contour>
      <point x="207" y="81"/>
      <point x="150" y="162"/>
      <point x="150" y="260" type="curve"/>
      <point x="150" y="357"/>
      <point x="207" y="439"/>
      <point x="308" y="439" type="curve"/>
      <point x="409" y="439"/>
      <point x="466" y="358"/>
      <point x="466" y="260" type="curve"/>
      <point x="466" y="163"/>
      <point x="409" y="81"/>
      <point x="308" y="81" type="curve"/>
    </contour>
    <contour>
      <point x="307" y="530" type="move" name="top"/>
    </contour>
    <contour>
      <point x="307" y="-10" type="move" name="bottom"/>
    </contour>
  </outline>
</glyph>
<glyph name="T" format="1">
  <advance width="604"/>
  <unicode hex="0054"/>
  <outline>
    <contour>
      <point x="121" y="320" type="line"/>
      <point x="121" y="424" type="line"/>
      <point x="483" y="424" type="line"/>
      <point x="483" y="320" type="line"/>
      <point x="591" y="320" type="line"/>
      <point x="591" y="520" type="line"/>
      <point x="13" y="520" type="line"/>
      <point x="13" y="320" type="line"/>
    </contour>
    <contour>
      <point x="446" y="0" type="line"/>
      <point x="446" y="96" type="line"/>
      <point x="157" y="96" type="line"/>
      <point x="157" y="0" type="line"/>
    </contour>
    <contour>
      <point x="363" y="62" type="line"/>
      <point x="363" y="467" type="line"/>
      <point x="241" y="467" type="line"/>
      <point x="241" y="62" type="line"/>
    </contour>
    <contour>
      <point x="301" y="245" type="move" name="center"/>
    </contour>
    <contour>
      <point x="301" y="0" type="move" name="bottom"/>
    </contour>
    <contour>
      <point x="301" y="527" type="move" name="top"/>
    </contour>
  </outline>
</glyph>
<glyph name="U" format="1">
  <advance width="682"/>
  <unicode hex="0055"/>
  <outline>
    <contour>
      <point x="485" y="-10"/>
      <point x="592" y="79"/>
      <point x="592" y="206" type="curve" smooth="yes"/>
      <point x="592" y="468" type="line"/>
      <point x="470" y="468" type="line"/>
      <point x="472" y="215" type="line" smooth="yes"/>
      <point x="472" y="140"/>
      <point x="416" y="91"/>
      <point x="341" y="91" type="curve" smooth="yes"/>
      <point x="265" y="91"/>
      <point x="213" y="139"/>
      <point x="213" y="213" type="curve" smooth="yes"/>
      <point x="214" y="468" type="line"/>
      <point x="90" y="468" type="line"/>
      <point x="90" y="206" type="line" smooth="yes"/>
      <point x="90" y="79"/>
      <point x="191" y="-10"/>
      <point x="341" y="-10" type="curve" smooth="yes"/>
    </contour>
    <contour>
      <point x="299" y="424" type="line"/>
      <point x="299" y="520" type="line"/>
      <point x="5" y="520" type="line"/>
      <point x="5" y="424" type="line"/>
    </contour>
    <contour>
      <point x="676" y="424" type="line"/>
      <point x="676" y="520" type="line"/>
      <point x="385" y="520" type="line"/>
      <point x="385" y="424" type="line"/>
    </contour>
    <contour>
      <point x="352" y="-9" type="move" name="ogonek"/>
    </contour>
    <contour>
      <point x="342" y="490" type="move" name="top"/>
    </contour>
    <contour>
      <point x="662" y="490" type="move" name="topright"/>
    </contour>
    <contour>
      <point x="343" y="-10" type="move" name="bottom"/>
    </contour>
  </outline>
</glyph>
<glyph name="W" format="1">
  <advance width="896"/>
  <unicode hex="0057"/>
  <outline>
    <contour>
      <point x="317" y="-10" type="line"/>
      <point x="556" y="507" type="line"/>
      <point x="442" y="507" type="line"/>
      <point x="295" y="149" type="line"/>
      <point x="154" y="507" type="line"/>
      <point x="22" y="507" type="line"/>
      <point x="252" y="-10" type="line"/>
    </contour>
    <contour>
      <point x="253" y="424" type="line"/>
      <point x="253" y="520" type="line"/>
      <point x="2" y="520" type="line"/>
      <point x="2" y="424" type="line"/>
    </contour>
    <contour>
      <point x="619" y="-10" type="line"/>
      <point x="875" y="507" type="line"/>
      <point x="761" y="507" type="line"/>
      <point x="597" y="149" type="line"/>
      <point x="514" y="353" type="line"/>
      <point x="423" y="294" type="line"/>
      <point x="555" y="-10" type="line"/>
    </contour>
    <contour>
      <point x="571" y="424" type="line"/>
      <point x="571" y="520" type="line"/>
      <point x="324" y="520" type="line"/>
      <point x="324" y="424" type="line"/>
    </contour>
    <contour>
      <point x="895" y="424" type="line"/>
      <point x="895" y="520" type="line"/>
      <point x="621" y="520" type="line"/>
      <point x="621" y="424" type="line"/>
    </contour>
    <contour>
      <point x="435" y="520" type="move" name="top"/>
    </contour>
    <contour>
      <point x="435" y="0" type="move" name="bottom"/>
    </contour>
  </outline>
</glyph>
<glyph name="Y" format="1">
  <advance width="636"/>
  <unicode hex="0059"/>
  <outline>
    <contour>
      <point x="348" y="177" type="line"/>
      <point x="630" y="506" type="line"/>
      <point x="491" y="506" type="line"/>
      <point x="323" y="296" type="line"/>
      <point x="146" y="506" type="line"/>
      <point x="0" y="506" type="line"/>
      <point x="286" y="177" type="line"/>
    </contour>
    <contour>
      <point x="466" y="0" type="line"/>
      <point x="466" y="96" type="line"/>
      <point x="170" y="96" type="line"/>
      <point x="170" y="0" type="line"/>
    </contour>
    <contour>
      <point x="380" y="0" type="line"/>
      <point x="380" y="253" type="line"/>
      <point x="256" y="253" type="line"/>
      <point x="256" y="0" type="line"/>
    </contour>
    <contour>
      <point x="250" y="424" type="line"/>
      <point x="250" y="520" type="line"/>
      <point x="11" y="520" type="line"/>
      <point x="11" y="424" type="line"/>
    </contour>
    <contour>
      <point x="624" y="424" type="line"/>
      <point x="624" y="520" type="line"/>
      <point x="385" y="520" type="line"/>
      <point x="385" y="424" type="line"/>
    </contour>
    <contour>
      <point x="319" y="490" type="move" name="top"/>
    </contour>
    <contour>
      <point x="319" y="0" type="move" name="bottom"/>
    </contour>
  </outline>
</glyph>
<glyph name="a" format="1">
  <advance width="483"/>
  <unicode hex="0061"/>
  <outline>
    <contour>
      <point x="78" y="235" type="line"/>
      <point x="132" y="257"/>
      <point x="176" y="270"/>
      <point x="218" y="270" type="curve" smooth="yes"/>
      <point x="263" y="270"/>
      <point x="301" y="255"/>
      <point x="301" y="223" type="curve" smooth="yes"/>
      <point x="301" y="100" type="line" smooth="yes"/>
      <point x="301" y="34"/>
      <point x="345" y="-6"/>
      <point x="396" y="-6" type="curve" smooth="yes"/>
      <point x="429" y="-6"/>
      <point x="450" y="2"/>
      <point x="470" y="11" type="curve"/>
      <point x="447" y="92" type="line"/>
      <point x="442" y="90"/>
      <point x="439" y="89"/>
      <point x="432" y="89" type="curve" smooth="yes"/>
      <point x="422" y="89"/>
      <point x="410" y="92"/>
      <point x="410" y="112" type="curve" smooth="yes"/>
      <point x="410" y="218" type="line" smooth="yes"/>
      <point x="410" y="305"/>
      <point x="353" y="366"/>
      <point x="235" y="366" type="curve" smooth="yes"/>
      <point x="169" y="366"/>
      <point x="121" y="351"/>
      <point x="53" y="322" type="curve"/>
    </contour>
    <contour>
      <point x="219" y="-11"/>
      <point x="273" y="16"/>
      <point x="316" y="60" type="curve"/>
      <point x="318" y="134" type="line"/>
      <point x="273" y="99"/>
      <point x="230" y="83"/>
      <point x="197" y="83" type="curve" smooth="yes"/>
      <point x="173" y="83"/>
      <point x="161" y="93"/>
      <point x="161" y="106" type="curve" smooth="yes"/>
      <point x="161" y="128"/>
      <point x="185" y="137"/>
      <point x="210" y="137" type="curve" smooth="yes"/>
      <point x="243" y="138"/>
      <point x="275" y="135"/>
      <point x="318" y="125" type="curve"/>
      <point x="318" y="195" type="line"/>
      <point x="276" y="208"/>
      <point x="229" y="219"/>
      <point x="180" y="219" type="curve" smooth="yes"/>
      <point x="108" y="219"/>
      <point x="33" y="179"/>
      <point x="33" y="101" type="curve" smooth="yes"/>
      <point x="33" y="25"/>
      <point x="96" y="-11"/>
      <point x="162" y="-11" type="curve" smooth="yes"/>
    </contour>
    <contour>
      <point x="465" y="10" type="move" name="ogonek"/>
    </contour>
    <contour>
      <point x="163" y="-8" type="move" name="bottom"/>
    </contour>
    <contour>
      <point x="235" y="365" type="move" name="top"/>
    </contour>
  </outline>
</glyph>
<glyph name="d" format="1">
  <advance width="507"/>
  <unicode hex="0064"/>
  <outline>
    <contour>
      <point x="301" y="-11"/>
      <point x="354" y="58"/>
      <point x="392" y="98" type="curve"/>
      <point x="392" y="181" type="line"/>
      <point x="350" y="139"/>
      <point x="295" y="87"/>
      <point x="241" y="86" type="curve" smooth="yes"/>
      <point x="182" y="85"/>
      <point x="149" y="125"/>
      <point x="149" y="177" type="curve" smooth="yes"/>
      <point x="149" y="232"/>
      <point x="187" y="272"/>
      <point x="250" y="272" type="curve" smooth="yes"/>
      <point x="303" y="272"/>
      <point x="358" y="225"/>
      <point x="390" y="182" type="curve"/>
      <point x="390" y="259" type="line"/>
      <point x="359" y="301"/>
      <point x="311" y="367"/>
      <point x="220" y="367" type="curve" smooth="yes"/>
      <point x="101" y="367"/>
      <point x="21" y="285"/>
      <point x="21" y="177" type="curve" smooth="yes"/>
      <point x="21" y="69"/>
      <point x="105" y="-11"/>
      <point x="207" y="-11" type="curve" smooth="yes"/>
    </contour>
    <contour>
      <point x="460" y="-5"/>
      <point x="482" y="4"/>
      <point x="501" y="12" type="curve"/>
      <point x="478" y="92" type="line"/>
      <point x="473" y="91"/>
      <point x="471" y="90"/>
      <point x="464" y="90" type="curve" smooth="yes"/>
      <point x="452" y="90"/>
      <point x="440" y="94"/>
      <point x="442" y="113" type="curve" smooth="yes"/>
      <point x="442" y="520" type="line"/>
      <point x="326" y="520" type="line"/>
      <point x="326" y="101" type="line" smooth="yes"/>
      <point x="326" y="35"/>
      <point x="371" y="-5"/>
      <point x="427" y="-5" type="curve" smooth="yes"/>
    </contour>
    <contour>
      <point x="430" y="430" type="line"/>
      <point x="430" y="520" type="line"/>
      <point x="255" y="520" type="line"/>
      <point x="255" y="430" type="line"/>
    </contour>
    <contour>
      <point x="207" y="-8" type="move" name="bottom"/>
    </contour>
    <contour>
      <point x="207" y="365" type="move" name="top"/>
    </contour>
    <contour>
      <point x="516" y="357" type="move" name="topright"/>
    </contour>
    <contour>
      <point x="207" y="179" type="move" name="center"/>
    </contour>
  </outline>
</glyph>
<glyph name="e" format="1">
  <advance width="434"/>
  <unicode hex="0065"/>
  <outline>
    <contour>
      <point x="385" y="139" type="line"/>
      <point x="348" y="107"/>
      <point x="302" y="85"/>
      <point x="253" y="85" type="curve" smooth="yes"/>
      <point x="202" y="85"/>
      <point x="143" y="117"/>
      <point x="143" y="187" type="curve" smooth="yes"/>
      <point x="143" y="247"/>
      <point x="193" y="281"/>
      <point x="235" y="281" type="curve" smooth="yes"/>
      <point x="267" y="281"/>
      <point x="289" y="261"/>
      <point x="289" y="245" type="curve" smooth="yes"/>
      <point x="289" y="227"/>
      <point x="271" y="203"/>
      <point x="222" y="203" type="curve" smooth="yes"/>
      <point x="177" y="203"/>
      <point x="106" y="212"/>
      <point x="58" y="256" type="curve"/>
      <point x="57" y="196" type="line"/>
      <point x="102" y="157"/>
      <point x="177" y="125"/>
      <point x="254" y="125" type="curve" smooth="yes"/>
      <point x="315" y="125"/>
      <point x="413" y="157"/>
      <point x="413" y="241" type="curve" smooth="yes"/>
      <point x="413" y="313"/>
      <point x="338" y="367"/>
      <point x="235" y="367" type="curve" smooth="yes"/>
      <point x="125" y="367"/>
      <point x="21" y="298"/>
      <point x="21" y="177" type="curve" smooth="yes"/>
      <point x="21" y="60"/>
      <point x="124" y="-11"/>
      <point x="243" y="-11" type="curve" smooth="yes"/>
      <point x="320" y="-11"/>
      <point x="383" y="20"/>
      <point x="427" y="56" type="curve"/>
    </contour>
    <contour>
      <point x="427" y="56" type="move" name="ogonek"/>
    </contour>
    <contour>
      <point x="235" y="-8" type="move" name="bottom"/>
    </contour>
    <contour>
      <point x="235" y="363" type="move" name="top"/>
    </contour>
  </outline>
</glyph>
<glyph name="h" format="1">
  <advance width="539"/>
  <unicode hex="0068"/>
  <outline>
    <contour>
      <point x="482" y="0" type="line"/>
      <point x="482" y="189" type="line" smooth="yes"/>
      <point x="482" y="306"/>
      <point x="440" y="366"/>
      <point x="349" y="366" type="curve" smooth="yes"/>
      <point x="271" y="366"/>
      <point x="221" y="321"/>
      <point x="150" y="227" type="curve"/>
      <point x="150" y="137" type="line"/>
      <point x="204" y="217"/>
      <point x="251" y="263"/>
      <point x="300" y="263" type="curve" smooth="yes"/>
      <point x="343" y="263"/>
      <point x="367" y="233"/>
      <point x="367" y="189" type="curve" smooth="yes"/>
      <point x="367" y="0" type="line"/>
    </contour>
    <contour>
      <point x="251" y="0" type="line"/>
      <point x="251" y="93" type="line"/>
      <point x="8" y="93" type="line"/>
      <point x="8" y="0" type="line"/>
    </contour>
    <contour>
      <point x="543" y="0" type="line"/>
      <point x="543" y="93" type="line"/>
      <point x="310" y="93" type="line"/>
      <point x="310" y="0" type="line"/>
    </contour>
    <contour>
      <point x="8" y="520" type="line"/>
      <point x="8" y="427" type="line"/>
      <point x="79" y="427" type="line"/>
      <point x="79" y="0" type="line"/>
      <point x="195" y="0" type="line"/>
      <point x="195" y="520" type="line"/>
    </contour>
    <contour>
      <point x="288" y="179" type="move" name="center"/>
    </contour>
    <contour>
      <point x="288" y="0" type="move" name="bottom"/>
    </contour>
    <contour>
      <point x="288" y="363" type="move" name="top"/>
    </contour>
  </outline>
</glyph>
<glyph name="i" format="1">
  <advance width="285"/>
  <unicode hex="0069"/>
  <outline>
    <contour>
      <point x="211" y="0" type="line"/>
      <point x="211" y="357" type="line"/>
      <point x="96" y="357" type="line"/>
      <point x="96" y="0" type="line"/>
    </contour>
    <contour>
      <point x="283" y="0" type="line"/>
      <point x="283" y="90" type="line"/>
      <point x="25" y="90" type="line"/>
      <point x="25" y="0" type="line"/>
    </contour>
    <contour>
      <point x="209" y="267" type="line"/>
      <point x="209" y="357" type="line"/>
      <point x="25" y="357" type="line"/>
      <point x="25" y="267" type="line"/>
    </contour>
    <contour>
      <point x="191" y="412"/>
      <point x="222" y="437"/>
      <point x="222" y="470" type="curve"/>
      <point x="222" y="505"/>
      <point x="191" y="530"/>
      <point x="147" y="530" type="curve"/>
      <point x="106" y="530"/>
      <point x="73" y="505"/>
      <point x="73" y="470" type="curve"/>
      <point x="73" y="437"/>
      <point x="106" y="412"/>
      <point x="147" y="412" type="curve"/>
    </contour>
    <contour>
      <point x="283" y="0" type="move" name="ogonek"/>
    </contour>
    <contour>
      <point x="135" y="0" type="move" name="bottom"/>
    </contour>
    <contour>
      <point x="145" y="357" type="move" name="top"/>
    </contour>
  </outline>
</glyph>
<glyph name="j" format="1">
  <advance width="258"/>
  <unicode hex="006A"/>
  <outline>
    <contour>
      <point x="136" y="-190"/>
      <point x="209" y="-128"/>
      <point x="209" y="-7" type="curve" smooth="yes"/>
      <point x="209" y="341" type="line"/>
      <point x="96" y="341" type="line"/>
      <point x="96" y="-9" type="line" smooth="yes"/>
      <point x="96" y="-61"/>
      <point x="72" y="-89"/>
      <point x="35" y="-89" type="curve" smooth="yes"/>
      <point x="11" y="-89"/>
      <point x="-4" y="-84"/>
      <point x="-32" y="-75" type="curve"/>
      <point x="-60" y="-170" type="line"/>
      <point x="-33" y="-178"/>
      <point x="-10" y="-190"/>
      <point x="40" y="-190" type="curve" smooth="yes"/>
    </contour>
    <contour>
      <point x="209" y="267" type="line"/>
      <point x="209" y="357" type="line"/>
      <point x="25" y="357" type="line"/>
      <point x="25" y="267" type="line"/>
    </contour>
    <contour>
      <point x="191" y="412"/>
      <point x="222" y="437"/>
      <point x="222" y="470" type="curve"/>
      <point x="222" y="505"/>
      <point x="191" y="530"/>
      <point x="147" y="530" type="curve"/>
      <point x="106" y="530"/>
      <point x="73" y="505"/>
      <point x="73" y="470" type="curve"/>
      <point x="73" y="437"/>
      <point x="106" y="412"/>
      <point x="147" y="412" type="curve"/>
    </contour>
    <contour>
      <point x="146" y="357" type="move" name="top"/>
    </contour>
    <contour>
      <point x="146" y="0" type="move" name="bottom"/>
    </contour>
  </outline>
</glyph>
<glyph name="n" format="1">
  <advance width="560"/>
  <unicode hex="006E"/>
  <outline>
    <contour>
      <point x="503" y="0" type="line"/>
      <point x="503" y="189" type="line" smooth="yes"/>
      <point x="503" y="306"/>
      <point x="455" y="366"/>
      <point x="364" y="366" type="curve" smooth="yes"/>
      <point x="292" y="366"/>
      <point x="242" y="321"/>
      <point x="171" y="227" type="curve"/>
      <point x="171" y="137" type="line"/>
      <point x="225" y="217"/>
      <point x="272" y="258"/>
      <point x="321" y="258" type="curve" smooth="yes"/>
      <point x="364" y="258"/>
      <point x="388" y="228"/>
      <point x="388" y="189" type="curve" smooth="yes"/>
      <point x="388" y="0" type="line"/>
    </contour>
    <contour>
      <point x="268" y="0" type="line"/>
      <point x="268" y="90" type="line"/>
      <point x="25" y="90" type="line"/>
      <point x="25" y="0" type="line"/>
    </contour>
    <contour>
      <point x="211" y="0" type="line"/>
      <point x="211" y="357" type="line"/>
      <point x="96" y="357" type="line"/>
      <point x="96" y="0" type="line"/>
    </contour>
    <contour>
      <point x="203" y="267" type="line"/>
      <point x="203" y="357" type="line"/>
      <point x="25" y="357" type="line"/>
      <point x="25" y="267" type="line"/>
    </contour>
    <contour>
      <point x="564" y="0" type="line"/>
      <point x="564" y="90" type="line"/>
      <point x="331" y="90" type="line"/>
      <point x="331" y="0" type="line"/>
    </contour>
    <contour>
      <point x="298" y="367" type="move" name="top"/>
    </contour>
    <contour>
      <point x="308" y="0" type="move" name="bottom"/>
    </contour>
  </outline>
</glyph>
<glyph name="q" format="1">
  <advance width="510"/>
  <unicode hex="0071"/>
  <outline>
    <contour>
      <point x="282" y="-11"/>
      <point x="343" y="42"/>
      <point x="386" y="123" type="curve"/>
      <point x="386" y="206" type="line"/>
      <point x="343" y="117"/>
      <point x="282" y="87"/>
      <point x="239" y="86" type="curve" smooth="yes"/>
      <point x="182" y="85"/>
      <point x="149" y="127"/>
      <point x="149" y="178" type="curve" smooth="yes"/>
      <point x="149" y="234"/>
      <point x="195" y="272"/>
      <point x="258" y="272" type="curve" smooth="yes"/>
      <point x="324" y="272"/>
      <point x="442" y="183"/>
      <point x="498" y="127" type="curve"/>
      <point x="498" y="240" type="line"/>
      <point x="442" y="296"/>
      <point x="332" y="367"/>
      <point x="228" y="367" type="curve" smooth="yes"/>
      <point x="110" y="367"/>
      <point x="21" y="288"/>
      <point x="21" y="178" type="curve" smooth="yes"/>
      <point x="21" y="68"/>
      <point x="98" y="-11"/>
      <point x="198" y="-11" type="curve" smooth="yes"/>
    </contour>
    <contour>
      <point x="490" y="-165" type="line"/>
      <point x="490" y="-75" type="line"/>
      <point x="221" y="-75" type="line"/>
      <point x="221" y="-165" type="line"/>
    </contour>
    <contour>
      <point x="420" y="-157" type="line"/>
      <point x="420" y="369" type="line"/>
      <point x="304" y="346" type="line"/>
      <point x="304" y="-157" type="line"/>
    </contour>
    <contour>
      <point x="188" y="179" type="move" name="center"/>
    </contour>
    <contour>
      <point x="187" y="-8" type="move" name="bottom"/>
    </contour>
    <contour>
      <point x="187" y="363" type="move" name="top"/>
    </contour>
  </outline>
</glyph>
<glyph name="w" format="1">
  <advance width="684"/>
  <unicode hex="0077"/>
  <outline>
    <contour>
      <point x="247" y="-20" type="line"/>
      <point x="448" y="343" type="line"/>
      <point x="346" y="343" type="line"/>
      <point x="229" y="109" type="line"/>
      <point x="126" y="343" type="line"/>
      <point x="1" y="343" type="line"/>
      <point x="184" y="-20" type="line"/>
    </contour>
    <contour>
      <point x="213" y="267" type="line"/>
      <point x="213" y="357" type="line"/>
      <point x="-2" y="357" type="line"/>
      <point x="-2" y="267" type="line"/>
    </contour>
    <contour>
      <point x="507" y="-20" type="line"/>
      <point x="702" y="343" type="line"/>
      <point x="601" y="343" type="line"/>
      <point x="485" y="109" type="line"/>
      <point x="411" y="273" type="line"/>
      <point x="353" y="154" type="line"/>
      <point x="443" y="-20" type="line"/>
    </contour>
    <contour>
      <point x="447" y="267" type="line"/>
      <point x="447" y="357" type="line"/>
      <point x="295" y="357" type="line"/>
      <point x="295" y="267" type="line"/>
    </contour>
    <contour>
      <point x="698" y="267" type="line"/>
      <point x="698" y="357" type="line"/>
      <point x="525" y="357" type="line"/>
      <point x="525" y="267" type="line"/>
    </contour>
    <contour>
      <point x="347" y="357" type="move" name="top"/>
    </contour>
    <contour>
      <point x="345" y="0" type="move" name="bottom"/>
    </contour>
  </outline>
</glyph>
<glyph name="x" format="1">
  <advance width="548"/>
  <unicode hex="0078"/>
  <outline>
    <contour>
      <point x="535" y="267" type="line"/>
      <point x="535" y="357" type="line"/>
      <point x="318" y="357" type="line"/>
      <point x="318" y="267" type="line"/>
    </contour>
    <contour>
      <point x="167" y="77" type="line"/>
      <point x="278" y="148" type="line"/>
      <point x="312" y="148" type="line"/>
      <point x="508" y="282" type="line"/>
      <point x="383" y="282" type="line"/>
      <point x="271" y="209" type="line"/>
      <point x="236" y="209" type="line"/>
      <point x="41" y="77" type="line"/>
    </contour>
    <contour>
      <point x="233" y="-1" type="line"/>
      <point x="233" y="89" type="line"/>
      <point x="16" y="89" type="line"/>
      <point x="16" y="-1" type="line"/>
    </contour>
    <contour>
      <point x="104" y="210" type="line"/>
      <point x="104" y="247"/>
      <point x="110" y="271"/>
      <point x="142" y="271" type="curve" smooth="yes"/>
      <point x="172" y="271"/>
      <point x="185" y="231"/>
      <point x="223" y="168" type="curve"/>
      <point x="228" y="169" type="line"/>
      <point x="273" y="87"/>
      <point x="324" y="-8"/>
      <point x="419" y="-8" type="curve" smooth="yes"/>
      <point x="482" y="-8"/>
      <point x="549" y="37"/>
      <point x="549" y="138" type="curve"/>
      <point x="450" y="150" type="line"/>
      <point x="450" y="106"/>
      <point x="430" y="89"/>
      <point x="411" y="89" type="curve" smooth="yes"/>
      <point x="383" y="89"/>
      <point x="364" y="128"/>
      <point x="325" y="192" type="curve"/>
      <point x="320" y="191" type="line"/>
      <point x="275" y="273"/>
      <point x="231" y="367"/>
      <point x="133" y="367" type="curve" smooth="yes"/>
      <point x="58" y="367"/>
      <point x="6" y="316"/>
      <point x="6" y="222" type="curve"/>
    </contour>
    <contour>
      <point x="271" y="357" type="move" name="top"/>
    </contour>
    <contour>
      <point x="271" y="0" type="move" name="bottom"/>
    </contour>
  </outline>
</glyph>
<glyph name="braceleft" format="1">
  <advance width="334"/>
  <unicode hex="007B"/>
  <outline>
    <contour>
      <point x="282" y="-120"/>
      <point x="318" y="-106"/>
      <point x="356" y="-91" type="curve"/>
      <point x="324" y="-2" type="line"/>
      <point x="293" y="-15"/>
      <point x="266" y="-23"/>
      <point x="234" y="-23" type="curve" smooth="yes"/>
      <point x="201" y="-23"/>
      <point x="171" y="-16"/>
      <point x="171" y="14" type="curve" smooth="yes"/>
      <point x="171" y="54"/>
      <point x="271" y="84"/>
      <point x="271" y="168" type="curve" smooth="yes"/>
      <point x="271" y="234"/>
      <point x="201" y="270"/>
      <point x="111" y="270" type="curve"/>
      <point x="111" y="260" type="line"/>
      <point x="201" y="260"/>
      <point x="271" y="296"/>
      <point x="271" y="362" type="curve" smooth="yes"/>
      <point x="271" y="446"/>
      <point x="171" y="476"/>
      <point x="171" y="516" type="curve" smooth="yes"/>
      <point x="171" y="546"/>
      <point x="201" y="553"/>
      <point x="234" y="553" type="curve" smooth="yes"/>
      <point x="266" y="553"/>
      <point x="293" y="544"/>
      <point x="324" y="532" type="curve"/>
      <point x="356" y="621" type="line"/>
      <point x="318" y="636"/>
      <point x="282" y="650"/>
      <point x="217" y="650" type="curve" smooth="yes"/>
      <point x="131" y="650"/>
      <point x="60" y="604"/>
      <point x="60" y="523" type="curve" smooth="yes"/>
      <point x="60" y="438"/>
      <point x="168" y="392"/>
      <point x="168" y="351" type="curve" smooth="yes"/>
      <point x="168" y="319"/>
      <point x="132" y="307"/>
      <point x="72" y="307" type="curve" smooth="yes"/>
      <point x="29" y="307" type="line"/>
      <point x="29" y="223" type="line"/>
      <point x="72" y="223" type="line" smooth="yes"/>
      <point x="132" y="225"/>
      <point x="168" y="211"/>
      <point x="168" y="179" type="curve" smooth="yes"/>
      <point x="168" y="136"/>
      <point x="60" y="93"/>
      <point x="60" y="7" type="curve" smooth="yes"/>
      <point x="60" y="-74"/>
      <point x="131" y="-120"/>
      <point x="217" y="-120" type="curve" smooth="yes"/>
    </contour>
  </outline>
</glyph>
<glyph name="bar" format="1">
  <advance width="283"/>
  <unicode hex="007C"/>
  <outline>
    <contour>
      <point x="87" y="-146" type="line"/>
      <point x="196" y="-146" type="line"/>
      <point x="196" y="634" type="line"/>
      <point x="87" y="634" type="line"/>
    </contour>
  </outline>
</glyph>
<glyph name="asciitilde" format="1">
  <advance width="534"/>
  <unicode hex="007E"/>
  <outline>
    <contour>
      <point x="459" y="137"/>
      <point x="495" y="231"/>
      <point x="496" y="326" type="curve"/>
      <point x="399" y="328" type="line"/>
      <point x="399" y="261"/>
      <point x="384" y="233"/>
      <point x="359" y="233" type="curve" smooth="yes"/>
      <point x="344" y="233"/>
      <point x="331" y="245"/>
      <point x="299" y="280" type="curve" smooth="yes"/>
      <point x="266" y="315"/>
      <point x="232" y="343"/>
      <point x="176" y="343" type="curve" smooth="yes"/>
      <point x="76" y="343"/>
      <point x="39" y="249"/>
      <point x="38" y="154" type="curve"/>
      <point x="135" y="152" type="line"/>
      <point x="137" y="219"/>
      <point x="150" y="247"/>
      <point x="176" y="247" type="curve" smooth="yes"/>
      <point x="190" y="247"/>
      <point x="202" y="237"/>
      <point x="232" y="204" type="curve" smooth="yes"/>
      <point x="267" y="167"/>
      <point x="302" y="137"/>
      <point x="359" y="137" type="curve" smooth="yes"/>
    </contour>
  </outline>
</glyph>
<glyph name="cent" format="1">
  <advance width="434"/>
  <unicode hex="00A2"/>
  <outline>
    <contour>
      <point x="324" y="55"/>
      <point x="370" y="83"/>
      <point x="408" y="118" type="curve"/>
      <point x="354" y="197" type="line"/>
      <point x="325" y="169"/>
      <point x="297" y="147"/>
      <point x="253" y="147" type="curve" smooth="yes"/>
      <point x="196" y="146"/>
      <point x="161" y="186"/>
      <point x="161" y="235" type="curve" smooth="yes"/>
      <point x="161" y="289"/>
      <point x="203" y="323"/>
      <point x="249" y="323" type="curve" smooth="yes"/>
      <point x="291" y="323"/>
      <point x="314" y="303"/>
      <point x="338" y="276" type="curve"/>
      <point x="394" y="280" type="line"/>
      <point x="394" y="409" type="line"/>
      <point x="315" y="409" type="line"/>
      <point x="315" y="341" type="line"/>
      <point x="356" y="336" type="line"/>
      <point x="324" y="381"/>
      <point x="292" y="416"/>
      <point x="219" y="416" type="curve" smooth="yes"/>
      <point x="128" y="416"/>
      <point x="33" y="344"/>
      <point x="33" y="235" type="curve" smooth="yes"/>
      <point x="33" y="111"/>
      <point x="151" y="53"/>
      <point x="247" y="54" type="curve" smooth="yes"/>
    </contour>
    <contour>
      <point x="289" y="-10" type="line"/>
      <point x="289" y="114" type="line"/>
      <point x="283" y="129" type="line"/>
      <point x="283" y="362" type="line"/>
      <point x="289" y="376" type="line"/>
      <point x="289" y="480" type="line"/>
      <point x="193" y="480" type="line"/>
      <point x="193" y="376" type="line"/>
      <point x="199" y="362" type="line"/>
      <point x="199" y="129" type="line"/>
      <point x="193" y="114" type="line"/>
      <point x="193" y="-10" type="line"/>
    </contour>
  </outline>
</glyph>
<glyph name="sterling" format="1">
  <advance width="519"/>
  <unicode hex="00A3"/>
  <outline>
    <contour>
      <point x="82" y="-10" type="line" smooth="yes"/>
      <point x="206" y="-10"/>
      <point x="272" y="55"/>
      <point x="272" y="132" type="curve" smooth="yes"/>
      <point x="272" y="200"/>
      <point x="202" y="267"/>
      <point x="202" y="327" type="curve" smooth="yes"/>
      <point x="202" y="368"/>
      <point x="245" y="384"/>
      <point x="281" y="384" type="curve" smooth="yes"/>
      <point x="316" y="384"/>
      <point x="377" y="375"/>
      <point x="421" y="313" type="curve"/>
      <point x="481" y="318" type="line"/>
      <point x="481" y="470" type="line"/>
      <point x="384" y="470" type="line"/>
      <point x="384" y="363" type="line"/>
      <point x="459" y="361" type="line"/>
      <point x="405" y="442"/>
      <point x="336" y="480"/>
      <point x="251" y="480" type="curve" smooth="yes"/>
      <point x="157" y="480"/>
      <point x="86" y="421"/>
      <point x="86" y="327" type="curve" smooth="yes"/>
      <point x="86" y="256"/>
      <point x="150" y="195"/>
      <point x="150" y="133" type="curve" smooth="yes"/>
      <point x="150" y="89"/>
      <point x="99" y="85"/>
      <point x="82" y="85" type="curve" smooth="yes"/>
      <point x="51" y="85" type="line"/>
      <point x="51" y="-10" type="line"/>
    </contour>
    <contour>
      <point x="384" y="142" type="line"/>
      <point x="384" y="206" type="line"/>
      <point x="51" y="206" type="line"/>
      <point x="51" y="142" type="line"/>
    </contour>
    <contour>
      <point x="439" y="-10"/>
      <point x="498" y="41"/>
      <point x="513" y="123" type="curve"/>
      <point x="429" y="152" type="line"/>
      <point x="420" y="121"/>
      <point x="406" y="86"/>
      <point x="359" y="86" type="curve" smooth="yes"/>
      <point x="306" y="86"/>
      <point x="235" y="138"/>
      <point x="202" y="183" type="curve"/>
      <point x="192" y="90" type="line"/>
      <point x="226" y="44"/>
      <point x="296" y="-10"/>
      <point x="358" y="-10" type="curve" smooth="yes"/>
    </contour>
    <contour>
      <point x="386" y="222" type="line"/>
      <point x="386" y="287" type="line"/>
      <point x="53" y="287" type="line"/>
      <point x="53" y="222" type="line"/>
    </contour>
  </outline>
</glyph>
<glyph name="currency" format="1">
  <advance width="417"/>
  <unicode hex="00A4"/>
  <outline>
    <contour>
      <point x="291" y="83"/>
      <point x="354" y="145"/>
      <point x="354" y="226" type="curve"/>
      <point x="354" y="310"/>
      <point x="291" y="368"/>
      <point x="207" y="368" type="curve"/>
      <point x="128" y="368"/>
      <point x="58" y="310"/>
      <point x="58" y="226" type="curve"/>
      <point x="58" y="145"/>
      <point x="128" y="83"/>
      <point x="207" y="83" type="curve"/>
    </contour>
    <contour>
      <point x="154" y="117" type="line"/>
      <point x="112" y="157" type="line"/>
      <point x="31" y="61" type="line"/>
      <point x="74" y="21" type="line"/>
    </contour>
    <contour>
      <point x="386" y="61" type="line"/>
      <point x="305" y="157" type="line"/>
      <point x="263" y="117" type="line"/>
      <point x="343" y="21" type="line"/>
    </contour>
    <contour>
      <point x="154" y="334" type="line"/>
      <point x="74" y="430" type="line"/>
      <point x="31" y="390" type="line"/>
      <point x="112" y="294" type="line"/>
    </contour>
    <contour>
      <point x="386" y="390" type="line"/>
      <point x="343" y="430" type="line"/>
      <point x="263" y="334" type="line"/>
      <point x="305" y="294" type="line"/>
    </contour>
    <contour>
      <point x="173" y="161"/>
      <point x="148" y="191"/>
      <point x="148" y="226" type="curve"/>
      <point x="148" y="263"/>
      <point x="173" y="290"/>
      <point x="207" y="290" type="curve"/>
      <point x="242" y="290"/>
      <point x="265" y="263"/>
      <point x="265" y="226" type="curve"/>
      <point x="265" y="191"/>
      <point x="242" y="161"/>
      <point x="207" y="161" type="curve"/>
    </contour>
  </outline>
</glyph>
<glyph name="section" format="1">
  <advance width="570"/>
  <unicode hex="00A7"/>
  <outline>
    <contour>
      <point x="495" y="17"/>
      <point x="551" y="69"/>
      <point x="551" y="142" type="curve" smooth="yes"/>
      <point x="551" y="237"/>
      <point x="460" y="285"/>
      <point x="339" y="319" type="curve" smooth="yes"/>
      <point x="241" y="347"/>
      <point x="205" y="368"/>
      <point x="205" y="395" type="curve" smooth="yes"/>
      <point x="205" y="419"/>
      <point x="225" y="434"/>
      <point x="256" y="434" type="curve" smooth="yes"/>
      <point x="317" y="434"/>
      <point x="397" y="385"/>
      <point x="430" y="332" type="curve"/>
      <point x="502" y="336" type="line"/>
      <point x="502" y="520" type="line"/>
      <point x="393" y="520" type="line"/>
      <point x="393" y="405" type="line"/>
      <point x="452" y="400" type="line"/>
      <point x="398" y="486"/>
      <point x="335" y="530"/>
      <point x="242" y="530" type="curve" smooth="yes"/>
      <point x="149" y="530"/>
      <point x="77" y="472"/>
      <point x="77" y="382" type="curve" smooth="yes"/>
      <point x="77" y="306"/>
      <point x="152" y="235"/>
      <point x="277" y="200" type="curve" smooth="yes"/>
      <point x="373" y="173"/>
      <point x="423" y="157"/>
      <point x="423" y="112" type="curve" smooth="yes"/>
      <point x="423" y="67"/>
      <point x="380" y="49"/>
      <point x="349" y="36" type="curve"/>
      <point x="369" y="-13" type="line"/>
    </contour>
    <contour>
      <point x="419" y="-247"/>
      <point x="491" y="-189"/>
      <point x="491" y="-99" type="curve" smooth="yes"/>
      <point x="491" y="-23"/>
      <point x="415" y="48"/>
      <point x="291" y="83" type="curve" smooth="yes"/>
      <point x="194" y="110"/>
      <point x="145" y="126"/>
      <point x="145" y="171" type="curve" smooth="yes"/>
      <point x="145" y="216"/>
      <point x="188" y="234"/>
      <point x="219" y="247" type="curve"/>
      <point x="199" y="296" type="line"/>
      <point x="73" y="266"/>
      <point x="17" y="214"/>
      <point x="17" y="141" type="curve" smooth="yes"/>
      <point x="17" y="46"/>
      <point x="108" y="-2"/>
      <point x="229" y="-36" type="curve" smooth="yes"/>
      <point x="326" y="-64"/>
      <point x="363" y="-85"/>
      <point x="363" y="-112" type="curve" smooth="yes"/>
      <point x="363" y="-136"/>
      <point x="343" y="-151"/>
      <point x="311" y="-151" type="curve" smooth="yes"/>
      <point x="250" y="-151"/>
      <point x="171" y="-102"/>
      <point x="137" y="-49" type="curve"/>
      <point x="65" y="-53" type="line"/>
      <point x="65" y="-237" type="line"/>
      <point x="175" y="-237" type="line"/>
      <point x="175" y="-122" type="line"/>
      <point x="115" y="-117" type="line"/>
      <point x="170" y="-203"/>
      <point x="233" y="-247"/>
      <point x="326" y="-247" type="curve" smooth="yes"/>
    </contour>
  </outline>
</glyph>
<glyph name="degree" format="1">
  <advance width="291"/>
  <unicode hex="00B0"/>
  <outline>
    <contour>
      <point x="222" y="361"/>
      <point x="277" y="417"/>
      <point x="277" y="487" type="curve" smooth="yes"/>
      <point x="277" y="562"/>
      <point x="222" y="612"/>
      <point x="146" y="612" type="curve" smooth="yes"/>
      <point x="75" y="612"/>
      <point x="13" y="561"/>
      <point x="13" y="487" type="curve" smooth="yes"/>
      <point x="13" y="416"/>
      <point x="75" y="361"/>
      <point x="146" y="361" type="curve" smooth="yes"/>
    </contour>
    <contour>
      <point x="117" y="430"/>
      <point x="94" y="457"/>
      <point x="94" y="487" type="curve" smooth="yes"/>
      <point x="94" y="519"/>
      <point x="117" y="542"/>
      <point x="146" y="542" type="curve" smooth="yes"/>
      <point x="177" y="542"/>
      <point x="197" y="520"/>
      <point x="197" y="487" type="curve" smooth="yes"/>
      <point x="197" y="457"/>
      <point x="177" y="430"/>
      <point x="146" y="430" type="curve" smooth="yes"/>
    </contour>
  </outline>
</glyph>
<glyph name="uni00B5" format="1">
  <advance width="505"/>
  <unicode hex="00B5"/>
  <outline>
    <contour>
      <point x="311" y="-10"/>
      <point x="350" y="47"/>
      <point x="398" y="129" type="curve"/>
      <point x="398" y="219" type="line"/>
      <point x="343" y="133"/>
      <point x="295" y="97"/>
      <point x="257" y="97" type="curve" smooth="yes"/>
      <point x="206" y="97"/>
      <point x="194" y="128"/>
      <point x="194" y="168" type="curve" smooth="yes"/>
      <point x="194" y="357" type="line"/>
      <point x="138" y="357" type="line"/>
      <point x="138" y="141" type="line" smooth="yes"/>
      <point x="138" y="24"/>
      <point x="177" y="-10"/>
      <point x="245" y="-10" type="curve" smooth="yes"/>
    </contour>
    <contour>
      <point x="194" y="-165" type="line"/>
      <point x="194" y="-107" type="line" smooth="yes"/>
      <point x="194" y="-47"/>
      <point x="160" y="24"/>
      <point x="160" y="107" type="curve"/>
      <point x="160" y="357" type="line"/>
      <point x="81" y="357" type="line"/>
      <point x="81" y="-165" type="line"/>
    </contour>
    <contour>
      <point x="195" y="261" type="line"/>
      <point x="195" y="357" type="line"/>
      <point x="8" y="357" type="line"/>
      <point x="8" y="261" type="line"/>
    </contour>
    <contour>
      <point x="463" y="-5"/>
      <point x="481" y="-3"/>
      <point x="497" y="1" type="curve"/>
      <point x="499" y="95" type="line"/>
      <point x="492" y="93"/>
      <point x="488" y="92"/>
      <point x="482" y="92" type="curve" smooth="yes"/>
      <point x="472" y="92"/>
      <point x="460" y="96"/>
      <point x="460" y="119" type="curve"/>
      <point x="460" y="357" type="line"/>
      <point x="345" y="357" type="line"/>
      <point x="345" y="95" type="line"/>
      <point x="345" y="29"/>
      <point x="389" y="-5"/>
      <point x="445" y="-5" type="curve" smooth="yes"/>
    </contour>
  </outline>
</glyph>
<glyph name="periodcentered" format="1">
  <advance width="233"/>
  <unicode hex="00B7"/>
  <outline>
    <contour>
      <point x="164" y="184"/>
      <point x="197" y="211"/>
      <point x="197" y="248" type="curve"/>
      <point x="197" y="287"/>
      <point x="164" y="315"/>
      <point x="117" y="315" type="curve"/>
      <point x="73" y="315"/>
      <point x="37" y="287"/>
      <point x="37" y="248" type="curve"/>
      <point x="37" y="211"/>
      <point x="73" y="184"/>
      <point x="117" y="184" type="curve"/>
    </contour>
  </outline>
</glyph>
<glyph name="ordmasculine" format="1">
  <advance width="320"/>
  <unicode hex="00BA"/>
  <outline>
    <contour>
      <point x="231" y="306"/>
      <point x="288" y="349"/>
      <point x="288" y="417" type="curve"/>
      <point x="288" y="484"/>
      <point x="226" y="529"/>
      <point x="160" y="528" type="curve"/>
      <point x="92" y="529"/>
      <point x="33" y="484"/>
      <point x="33" y="417" type="curve"/>
      <point x="33" y="349"/>
      <point x="92" y="306"/>
      <point x="160" y="306" type="curve"/>
    </contour>
    <contour>
      <point x="129" y="361"/>
      <point x="106" y="382"/>
      <point x="106" y="417" type="curve"/>
      <point x="106" y="451"/>
      <point x="129" y="473"/>
      <point x="160" y="473" type="curve"/>
      <point x="190" y="473"/>
      <point x="214" y="451"/>
      <point x="214" y="417" type="curve"/>
      <point x="214" y="382"/>
      <point x="190" y="361"/>
      <point x="160" y="361" type="curve"/>
    </contour>
    <contour>
      <point x="43" y="212" type="line"/>
      <point x="278" y="212" type="line"/>
      <point x="278" y="260" type="line"/>
      <point x="43" y="260" type="line"/>
    </contour>
  </outline>
</glyph>
<glyph name="multiply" format="1">
  <advance width="421"/>
  <unicode hex="00D7"/>
  <outline>
    <contour>
      <point x="376" y="138" type="line"/>
      <point x="113" y="401" type="line"/>
      <point x="44" y="333" type="line"/>
      <point x="308" y="69" type="line"/>
    </contour>
    <contour>
      <point x="376" y="331" type="line"/>
      <point x="307" y="401" type="line"/>
      <point x="45" y="139" type="line"/>
      <point x="114" y="69" type="line"/>
    </contour>
  </outline>
</glyph>
<glyph name="Thorn" format="1">
  <advance width="573"/>
  <unicode hex="00DE"/>
  <outline>
    <contour>
      <point x="376" y="137" type="line" smooth="yes"/>
      <point x="475" y="137"/>
      <point x="549" y="178"/>
      <point x="549" y="259" type="curve" smooth="yes"/>
      <point x="549" y="343"/>
      <point x="475" y="381"/>
      <point x="376" y="381" type="curve" smooth="yes"/>
      <point x="193" y="381" type="line"/>
      <point x="193" y="294" type="line"/>
      <point x="357" y="294" type="line" smooth="yes"/>
      <point x="392" y="294"/>
      <point x="427" y="289"/>
      <point x="427" y="259" type="curve" smooth="yes"/>
      <point x="427" y="225"/>
      <point x="388" y="222"/>
      <point x="357" y="222" type="curve" smooth="yes"/>
      <point x="192" y="222" type="line"/>
      <point x="192" y="136" type="line"/>
    </contour>
    <contour>
      <point x="316" y="0" type="line"/>
      <point x="316" y="96" type="line"/>
      <point x="25" y="96" type="line"/>
      <point x="25" y="0" type="line"/>
    </contour>
    <contour>
      <point x="234" y="53" type="line"/>
      <point x="234" y="468" type="line"/>
      <point x="110" y="468" type="line"/>
      <point x="110" y="53" type="line"/>
    </contour>
    <contour>
      <point x="316" y="424" type="line"/>
      <point x="316" y="520" type="line"/>
      <point x="25" y="520" type="line"/>
      <point x="25" y="424" type="line"/>
    </contour>
  </outline>
</glyph>
<glyph name="ae" format="1">
  <advance width="708"/>
  <unicode hex="00E6"/>
  <outline>
    <contour>
      <point x="593" y="-11"/>
      <point x="657" y="20"/>
      <point x="701" y="56" type="curve"/>
      <point x="659" y="139" type="line"/>
      <point x="621" y="107"/>
      <point x="576" y="85"/>
      <point x="526" y="85" type="curve" smooth="yes"/>
      <point x="476" y="85"/>
      <point x="410" y="117"/>
      <point x="410" y="187" type="curve" smooth="yes"/>
      <point x="410" y="247"/>
      <point x="467" y="281"/>
      <point x="508" y="281" type="curve" smooth="yes"/>
      <point x="541" y="281"/>
      <point x="563" y="265"/>
      <point x="563" y="244" type="curve" smooth="yes"/>
      <point x="563" y="223"/>
      <point x="544" y="204"/>
      <point x="497" y="204" type="curve" smooth="yes"/>
      <point x="457" y="204"/>
      <point x="403" y="211"/>
      <point x="338" y="229" type="curve"/>
      <point x="337" y="169" type="line"/>
      <point x="401" y="146"/>
      <point x="457" y="126"/>
      <point x="528" y="126" type="curve" smooth="yes"/>
      <point x="595" y="126"/>
      <point x="687" y="157"/>
      <point x="687" y="240" type="curve" smooth="yes"/>
      <point x="687" y="311"/>
      <point x="627" y="367"/>
      <point x="529" y="367" type="curve" smooth="yes"/>
      <point x="432" y="367"/>
      <point x="350" y="311"/>
      <point x="330" y="218" type="curve"/>
      <point x="392" y="222" type="line"/>
      <point x="393" y="305"/>
      <point x="347" y="366"/>
      <point x="236" y="366" type="curve" smooth="yes"/>
      <point x="169" y="366"/>
      <point x="121" y="351"/>
      <point x="53" y="322" type="curve"/>
      <point x="78" y="235" type="line"/>
      <point x="132" y="257"/>
      <point x="177" y="270"/>
      <point x="219" y="270" type="curve" smooth="yes"/>
      <point x="262" y="270"/>
      <point x="307" y="255"/>
      <point x="307" y="229" type="curve" smooth="yes"/>
      <point x="307" y="175" type="line"/>
      <point x="307" y="60"/>
      <point x="404" y="-11"/>
      <point x="517" y="-11" type="curve" smooth="yes"/>
    </contour>
    <contour>
      <point x="227" y="-11"/>
      <point x="289" y="16"/>
      <point x="340" y="78" type="curve"/>
      <point x="315" y="132" type="line"/>
      <point x="271" y="98"/>
      <point x="227" y="83"/>
      <point x="197" y="83" type="curve" smooth="yes"/>
      <point x="173" y="83"/>
      <point x="161" y="93"/>
      <point x="161" y="106" type="curve" smooth="yes"/>
      <point x="161" y="128"/>
      <point x="185" y="137"/>
      <point x="210" y="137" type="curve" smooth="yes"/>
      <point x="243" y="138"/>
      <point x="274" y="134"/>
      <point x="318" y="122" type="curve"/>
      <point x="318" y="193" type="line"/>
      <point x="276" y="208"/>
      <point x="229" y="219"/>
      <point x="180" y="219" type="curve" smooth="yes"/>
      <point x="108" y="219"/>
      <point x="33" y="179"/>
      <point x="33" y="101" type="curve" smooth="yes"/>
      <point x="33" y="25"/>
      <point x="96" y="-11"/>
      <point x="162" y="-11" type="curve" smooth="yes"/>
    </contour>
    <contour>
      <point x="701" y="56" type="move" name="ogonek"/>
    </contour>
    <contour>
      <point x="352" y="-10" type="move" name="bottom"/>
    </contour>
    <contour>
      <point x="347" y="367" type="move" name="top"/>
    </contour>
  </outline>
</glyph>
<glyph name="hbar" format="1">
  <advance width="537"/>
  <unicode hex="0127"/>
  <outline>
    <contour>
      <point x="-3" y="419" type="line"/>
      <point x="-3" y="361" type="line"/>
      <point x="468" y="361" type="line"/>
      <point x="468" y="419" type="line"/>
    </contour>
    <component base="h"/>
  </outline>
</glyph>
<glyph name="dotlessi" format="1">
  <advance width="285"/>
  <unicode hex="0131"/>
  <outline>
    <contour>
      <point x="211" y="0" type="line"/>
      <point x="211" y="357" type="line"/>
      <point x="96" y="357" type="line"/>
      <point x="96" y="0" type="line"/>
    </contour>
    <contour>
      <point x="283" y="0" type="line"/>
      <point x="283" y="90" type="line"/>
      <point x="25" y="90" type="line"/>
      <point x="25" y="0" type="line"/>
    </contour>
    <contour>
      <point x="209" y="267" type="line"/>
      <point x="209" y="357" type="line"/>
      <point x="25" y="357" type="line"/>
      <point x="25" y="267" type="line"/>
    </contour>
    <contour>
      <point x="282" y="0" type="move" name="ogonek"/>
    </contour>
    <contour>
      <point x="158" y="0" type="move" name="bottom"/>
    </contour>
    <contour>
      <point x="142" y="357" type="move" name="top"/>
    </contour>
  </outline>
</glyph>
<glyph name="uni02BA" format="1">
  <advance width="392"/>
  <unicode hex="02BA"/>
  <outline>
    <contour>
      <point x="66" y="354" type="line"/>
      <point x="139" y="349" type="line"/>
      <point x="185" y="545" type="line"/>
      <point x="67" y="558" type="line"/>
    </contour>
    <contour>
      <point x="222" y="353" type="line"/>
      <point x="295" y="348" type="line"/>
      <point x="341" y="544" type="line"/>
      <point x="223" y="558" type="line"/>
    </contour>
  </outline>
</glyph>
<glyph name="uni0302" format="1">
  <advance width="322"/>
  <unicode hex="0302"/>
  <outline>
    <contour>
      <point x="160" y="550" type="line"/>
      <point x="264" y="476" type="line"/>
      <point x="299" y="508" type="line"/>
      <point x="189" y="639" type="line"/>
      <point x="133" y="639" type="line"/>
      <point x="23" y="508" type="line"/>
      <point x="58" y="476" type="line"/>
    </contour>
    <contour>
      <point x="161" y="445" type="move" name="_top"/>
    </contour>
  </outline>
</glyph>
<glyph name="uni0307" format="1">
  <advance width="244"/>
  <unicode hex="0307"/>
  <outline>
    <contour>
      <point x="166" y="422"/>
      <point x="197" y="447"/>
      <point x="197" y="480" type="curve"/>
      <point x="197" y="515"/>
      <point x="166" y="540"/>
      <point x="122" y="540" type="curve"/>
      <point x="81" y="540"/>
      <point x="48" y="515"/>
      <point x="48" y="480" type="curve"/>
      <point x="48" y="447"/>
      <point x="81" y="422"/>
      <point x="122" y="422" type="curve"/>
    </contour>
    <contour>
      <point x="121" y="367" type="move" name="_top"/>
    </contour>
  </outline>
</glyph>
<glyph name="uni0312" format="1">
  <advance width="219"/>
  <unicode hex="0312"/>
  <outline>
    <contour>
      <point x="43" y="496"/>
      <point x="74" y="469"/>
      <point x="112" y="469" type="curve" smooth="yes"/>
      <point x="147" y="469"/>
      <point x="176" y="490"/>
      <point x="176" y="519" type="curve" smooth="yes"/>
      <point x="176" y="546"/>
      <point x="153" y="564"/>
      <point x="123" y="564" type="curve" smooth="yes"/>
      <point x="113" y="564"/>
      <point x="103" y="564"/>
      <point x="96" y="559" type="curve"/>
      <point x="95" y="573"/>
      <point x="110" y="608"/>
      <point x="147" y="639" type="curve"/>
      <point x="122" y="665" type="line"/>
      <point x="79" y="632"/>
      <point x="43" y="586"/>
      <point x="43" y="544" type="curve" smooth="yes"/>
    </contour>
    <contour>
      <point x="111" y="393" type="move" name="_top"/>
    </contour>
  </outline>
</glyph>
<glyph name="uni0326" format="1">
  <advance width="238"/>
  <unicode hex="0326"/>
  <outline>
    <contour>
      <point x="187" y="-111"/>
      <point x="156" y="-84"/>
      <point x="118" y="-84" type="curve" smooth="yes"/>
      <point x="83" y="-84"/>
      <point x="54" y="-105"/>
      <point x="54" y="-134" type="curve" smooth="yes"/>
      <point x="54" y="-161"/>
      <point x="77" y="-179"/>
      <point x="107" y="-179" type="curve" smooth="yes"/>
      <point x="117" y="-179"/>
      <point x="127" y="-179"/>
      <point x="134" y="-174" type="curve"/>
      <point x="135" y="-188"/>
      <point x="120" y="-223"/>
      <point x="83" y="-254" type="curve"/>
      <point x="108" y="-280" type="line"/>
      <point x="151" y="-247"/>
      <point x="187" y="-201"/>
      <point x="187" y="-159" type="curve" smooth="yes"/>
    </contour>
    <contour>
      <point x="110" y="0" type="move" name="_bottom"/>
    </contour>
  </outline>
</glyph>
<glyph name="uni0411" format="1">
  <advance width="585"/>
  <unicode hex="0411"/>
  <outline>
    <contour>
      <point x="163" y="276" type="line"/>
      <point x="163" y="186" type="line"/>
      <point x="362" y="186" type="line" smooth="yes"/>
      <point x="409" y="187"/>
      <point x="438" y="172"/>
      <point x="438" y="142" type="curve" smooth="yes"/>
      <point x="438" y="112"/>
      <point x="403" y="96"/>
      <point x="354" y="96" type="curve" smooth="yes"/>
      <point x="25" y="96" type="line"/>
      <point x="25" y="0" type="line"/>
      <point x="353" y="0" type="line" smooth="yes"/>
      <point x="490" y="0"/>
      <point x="559" y="55"/>
      <point x="559" y="143" type="curve" smooth="yes"/>
      <point x="559" y="229"/>
      <point x="491" y="279"/>
      <point x="354" y="278" type="curve"/>
    </contour>
    <contour>
      <point x="428" y="424" type="line"/>
      <point x="428" y="327" type="line"/>
      <point x="536" y="327" type="line"/>
      <point x="536" y="520" type="line"/>
      <point x="25" y="520" type="line"/>
      <point x="25" y="424" type="line"/>
    </contour>
    <contour>
      <point x="205" y="53" type="line"/>
      <point x="205" y="464" type="line"/>
      <point x="82" y="464" type="line"/>
      <point x="82" y="53" type="line"/>
    </contour>
  </outline>
</glyph>
<glyph name="emdash" format="1">
  <advance width="641"/>
  <unicode hex="2014"/>
  <outline>
    <contour>
      <point x="19" y="228" type="line"/>
      <point x="19" y="130" type="line"/>
      <point x="622" y="130" type="line"/>
      <point x="622" y="228" type="line"/>
    </contour>
  </outline>
</glyph>
<glyph name="quotereversed" format="1">
  <advance width="248"/>
  <unicode hex="201B"/>
  <outline>
    <contour>
      <point x="178" y="352" type="line"/>
      <point x="140" y="393"/>
      <point x="106" y="429"/>
      <point x="105" y="467" type="curve"/>
      <point x="113" y="464"/>
      <point x="126" y="462"/>
      <point x="139" y="462" type="curve" smooth="yes"/>
      <point x="176" y="462"/>
      <point x="204" y="485"/>
      <point x="204" y="516" type="curve" smooth="yes"/>
      <point x="204" y="551"/>
      <point x="170" y="572"/>
      <point x="127" y="572" type="curve" smooth="yes"/>
      <point x="76" y="572"/>
      <point x="44" y="541"/>
      <point x="44" y="486" type="curve" smooth="yes"/>
      <point x="44" y="431"/>
      <point x="91" y="375"/>
      <point x="150" y="323" type="curve"/>
    </contour>
  </outline>
</glyph>
<glyph name="guilsinglright" format="1">
  <advance width="440"/>
  <unicode hex="203A"/>
  <outline>
    <contour>
      <point x="141" y="144"/>
      <point x="232" y="215"/>
      <point x="363" y="215" type="curve" smooth="yes"/>
      <point x="399" y="215" type="line"/>
      <point x="399" y="313" type="line"/>
      <point x="362" y="313" type="line" smooth="yes"/>
      <point x="229" y="313"/>
      <point x="140" y="384"/>
      <point x="108" y="499" type="curve"/>
      <point x="20" y="465" type="line"/>
      <point x="54" y="345"/>
      <point x="140" y="261"/>
      <point x="338" y="261" type="curve"/>
      <point x="338" y="267" type="line"/>
      <point x="141" y="267"/>
      <point x="56" y="183"/>
      <point x="21" y="62" type="curve"/>
      <point x="110" y="29" type="line"/>
    </contour>
  </outline>
</glyph>
<glyph name="uni2120" format="1">
  <advance width="576"/>
  <unicode hex="2120"/>
  <outline>
    <contour>
      <point x="176" y="295"/>
      <point x="208" y="318"/>
      <point x="208" y="357" type="curve" smooth="yes"/>
      <point x="208" y="398"/>
      <point x="171" y="420"/>
      <point x="119" y="434" type="curve" smooth="yes"/>
      <point x="76" y="444"/>
      <point x="59" y="450"/>
      <point x="59" y="462" type="curve" smooth="yes"/>
      <point x="59" y="476"/>
      <point x="70" y="483"/>
      <point x="91" y="483" type="curve" smooth="yes"/>
      <point x="119" y="483"/>
      <point x="147" y="469"/>
      <point x="161" y="445" type="curve"/>
      <point x="197" y="446" type="line"/>
      <point x="197" y="520" type="line"/>
      <point x="153" y="520" type="line"/>
      <point x="153" y="470" type="line"/>
      <point x="177" y="470" type="line"/>
      <point x="152" y="503"/>
      <point x="121" y="524"/>
      <point x="78" y="524" type="curve" smooth="yes"/>
      <point x="32" y="524"/>
      <point x="2" y="498"/>
      <point x="2" y="460" type="curve" smooth="yes"/>
      <point x="2" y="428"/>
      <point x="22" y="399"/>
      <point x="78" y="385" type="curve" smooth="yes"/>
      <point x="132" y="372"/>
      <point x="152" y="366"/>
      <point x="152" y="352" type="curve" smooth="yes"/>
      <point x="152" y="338"/>
      <point x="138" y="334"/>
      <point x="123" y="334" type="curve" smooth="yes"/>
      <point x="93" y="334"/>
      <point x="63" y="347"/>
      <point x="40" y="375" type="curve"/>
      <point x="2" y="376" type="line"/>
      <point x="2" y="299" type="line"/>
      <point x="46" y="299" type="line"/>
      <point x="46" y="348" type="line"/>
      <point x="19" y="349" type="line"/>
      <point x="50" y="319"/>
      <point x="83" y="295"/>
      <point x="130" y="295" type="curve" smooth="yes"/>
    </contour>
    <contour>
      <point x="395" y="297" type="line"/>
      <point x="410" y="324" type="line"/>
      <point x="314" y="520" type="line"/>
      <point x="263" y="520" type="line"/>
      <point x="374" y="297" type="line"/>
    </contour>
    <contour>
      <point x="333" y="299" type="line"/>
      <point x="333" y="340" type="line"/>
      <point x="223" y="340" type="line"/>
      <point x="223" y="299" type="line"/>
    </contour>
    <contour>
      <point x="304" y="321" type="line"/>
      <point x="304" y="520" type="line"/>
      <point x="257" y="520" type="line"/>
      <point x="257" y="321" type="line"/>
    </contour>
    <contour>
      <point x="302" y="479" type="line"/>
      <point x="302" y="520" type="line"/>
      <point x="223" y="520" type="line"/>
      <point x="223" y="479" type="line"/>
    </contour>
    <contour>
      <point x="559" y="299" type="line"/>
      <point x="559" y="340" type="line"/>
      <point x="445" y="340" type="line"/>
      <point x="445" y="299" type="line"/>
    </contour>
    <contour>
      <point x="406" y="297" type="line"/>
      <point x="516" y="520" type="line"/>
      <point x="469" y="520" type="line"/>
      <point x="375" y="324" type="line"/>
      <point x="386" y="297" type="line"/>
    </contour>
    <contour>
      <point x="525" y="321" type="line"/>
      <point x="525" y="520" type="line"/>
      <point x="474" y="520" type="line"/>
      <point x="474" y="321" type="line"/>
    </contour>
    <contour>
      <point x="559" y="479" type="line"/>
      <point x="559" y="520" type="line"/>
      <point x="476" y="520" type="line"/>
      <point x="476" y="479" type="line"/>
    </contour>
  </outline>
</glyph>
<glyph name="R.alt" format="1">
  <advance width="597"/>
  <outline>
    <contour>
      <point x="943" y="-193"/>
      <point x="1028" y="-154"/>
      <point x="1089" y="-107" type="curve"/>
      <point x="1039" y="-22" type="line"/>
      <point x="985" y="-63"/>
      <point x="924" y="-89"/>
      <point x="845" y="-89" type="curve" smooth="yes"/>
      <point x="749" y="-89"/>
      <point x="649" y="-52"/>
      <point x="546" y="72" type="curve" smooth="yes"/>
      <point x="458" y="180"/>
      <point x="415" y="229"/>
      <point x="347" y="229" type="curve" smooth="yes"/>
      <point x="202" y="229" type="line"/>
      <point x="202" y="210" type="line"/>
      <point x="249" y="210" type="line" smooth="yes"/>
      <point x="305" y="210"/>
      <point x="324" y="156"/>
      <point x="437" y="22" type="curve" smooth="yes"/>
      <point x="542" y="-98"/>
      <point x="667" y="-193"/>
      <point x="827" y="-193" type="curve" smooth="yes"/>
    </contour>
    <contour>
      <point x="318" y="0" type="line"/>
      <point x="318" y="96" type="line"/>
      <point x="25" y="97" type="line"/>
      <point x="25" y="0" type="line"/>
    </contour>
    <contour>
      <point x="233" y="53" type="line"/>
      <point x="233" y="464" type="line"/>
      <point x="110" y="464" type="line"/>
      <point x="110" y="53" type="line"/>
    </contour>
    <contour>
      <point x="367" y="210" type="line" smooth="yes"/>
      <point x="499" y="210"/>
      <point x="564" y="285"/>
      <point x="564" y="366" type="curve" smooth="yes"/>
      <point x="564" y="457"/>
      <point x="498" y="520"/>
      <point x="367" y="520" type="curve" smooth="yes"/>
      <point x="25" y="520" type="line"/>
      <point x="25" y="424" type="line"/>
      <point x="360" y="424" type="line" smooth="yes"/>
      <point x="397" y="424"/>
      <point x="442" y="415"/>
      <point x="442" y="366" type="curve" smooth="yes"/>
      <point x="442" y="307"/>
      <point x="394" y="301"/>
      <point x="360" y="301" type="curve" smooth="yes"/>
      <point x="190" y="301" type="line"/>
      <point x="190" y="210" type="line"/>
    </contour>
    <contour>
      <point x="317" y="520" type="move" name="top"/>
    </contour>
    <contour>
      <point x="357" y="0" type="move" name="bottom"/>
    </contour>
  </outline>
</glyph>
<glyph name="a.alt2" format="1">
  <advance width="492"/>
  <outline>
    <contour>
      <point x="301" y="-11"/>
      <point x="354" y="58"/>
      <point x="392" y="98" type="curve"/>
      <point x="392" y="181" type="line"/>
      <point x="350" y="139"/>
      <point x="295" y="87"/>
      <point x="241" y="86" type="curve" smooth="yes"/>
      <point x="182" y="85"/>
      <point x="149" y="125"/>
      <point x="149" y="177" type="curve" smooth="yes"/>
      <point x="149" y="232"/>
      <point x="187" y="272"/>
      <point x="250" y="272" type="curve" smooth="yes"/>
      <point x="303" y="272"/>
      <point x="358" y="225"/>
      <point x="390" y="182" type="curve"/>
      <point x="390" y="259" type="line"/>
      <point x="359" y="301"/>
      <point x="311" y="367"/>
      <point x="220" y="367" type="curve" smooth="yes"/>
      <point x="101" y="367"/>
      <point x="21" y="285"/>
      <point x="21" y="177" type="curve" smooth="yes"/>
      <point x="21" y="69"/>
      <point x="105" y="-11"/>
      <point x="207" y="-11" type="curve" smooth="yes"/>
    </contour>
    <contour>
      <point x="459" y="-5"/>
      <point x="481" y="4"/>
      <point x="500" y="12" type="curve"/>
      <point x="477" y="92" type="line"/>
      <point x="472" y="91"/>
      <point x="470" y="90"/>
      <point x="463" y="90" type="curve" smooth="yes"/>
      <point x="452" y="90"/>
      <point x="441" y="94"/>
      <point x="441" y="113" type="curve" smooth="yes"/>
      <point x="441" y="369" type="line"/>
      <point x="325" y="347" type="line"/>
      <point x="325" y="101" type="line" smooth="yes"/>
      <point x="325" y="35"/>
      <point x="370" y="-5"/>
      <point x="426" y="-5" type="curve" smooth="yes"/>
    </contour>
    <contour>
      <point x="479" y="-4" type="move" name="ogonek"/>
    </contour>
    <contour>
      <point x="204" y="-10" type="move" name="bottom"/>
    </contour>
    <contour>
      <point x="204" y="367" type="move" name="top"/>
    </contour>
  </outline>
</glyph>
<glyph name="four.dnom" format="1">
  <advance width="298"/>
  <outline>
    <contour>
      <point x="251" y="278" type="line"/>
      <point x="171" y="278" type="line"/>
      <point x="3" y="107" type="line"/>
      <point x="74" y="102" type="line"/>
    </contour>
    <contour>
      <point x="299" y="42" type="line"/>
      <point x="299" y="107" type="line"/>
      <point x="3" y="107" type="line"/>
      <point x="3" y="42" type="line"/>
    </contour>
    <contour>
      <point x="169" y="-10" type="line"/>
      <point x="249" y="-10" type="line"/>
      <point x="249" y="278" type="line"/>
      <point x="169" y="278" type="line"/>
    </contour>
  </outline>
</glyph>
<glyph name="seven.alt" format="1">
  <advance width="474"/>
  <outline>
    <contour>
      <point x="350" y="388" type="line" smooth="yes"/>
      <point x="350" y="326"/>
      <point x="309" y="301"/>
      <point x="210" y="243" type="curve" smooth="yes"/>
      <point x="89" y="173"/>
      <point x="80" y="87"/>
      <point x="79" y="0" type="curve"/>
      <point x="182" y="0" type="line"/>
      <point x="182" y="65"/>
      <point x="188" y="124"/>
      <point x="295" y="185" type="curve" smooth="yes"/>
      <point x="405" y="248"/>
      <point x="455" y="306"/>
      <point x="455" y="387" type="curve" smooth="yes"/>
      <point x="455" y="405" type="line"/>
      <point x="350" y="405" type="line"/>
    </contour>
    <contour>
      <point x="29" y="469" type="line"/>
      <point x="29" y="270" type="line"/>
      <point x="123" y="270" type="line"/>
      <point x="123" y="373" type="line"/>
      <point x="455" y="373" type="line"/>
      <point x="455" y="469" type="line"/>
    </contour>
  </outline>
</glyph>
<glyph name="t.alt" format="1">
  <advance width="339"/>
  <outline>
    <contour>
      <point x="305" y="357" type="line"/>
      <point x="23" y="357" type="line"/>
      <point x="23" y="267" type="line"/>
      <point x="305" y="267" type="line"/>
    </contour>
    <contour>
      <point x="304" y="121" type="line"/>
      <point x="277" y="101"/>
      <point x="252" y="92"/>
      <point x="225" y="92" type="curve" smooth="yes"/>
      <point x="195" y="92"/>
      <point x="172" y="110"/>
      <point x="172" y="163" type="curve" smooth="yes"/>
      <point x="172" y="217"/>
      <point x="187" y="264"/>
      <point x="213" y="340" type="curve"/>
      <point x="207" y="347" type="line"/>
      <point x="207" y="455" type="line"/>
      <point x="94" y="455" type="line"/>
      <point x="94" y="348" type="line"/>
      <point x="102" y="342" type="line"/>
      <point x="80" y="268"/>
      <point x="57" y="218"/>
      <point x="57" y="145" type="curve" smooth="yes"/>
      <point x="57" y="41"/>
      <point x="121" y="-10"/>
      <point x="213" y="-10" type="curve" smooth="yes"/>
      <point x="277" y="-10"/>
      <point x="315" y="11"/>
      <point x="342" y="31" type="curve"/>
    </contour>
    <contour>
      <point x="212" y="-10" type="move" name="bottom"/>
    </contour>
    <contour>
      <point x="172" y="456" type="move" name="top"/>
    </contour>
    <contour>
      <point x="265" y="419" type="move" name="topright"/>
    </contour>
    <contour>
      <point x="172" y="179" type="move" name="center"/>
    </contour>
  </outline>
</glyph>
<glyph name="three.numr" format="1">
  <advance width="275"/>
  <outline>
    <contour>
      <point x="204" y="193"/>
      <point x="258" y="224"/>
      <point x="258" y="268" type="curve" smooth="yes"/>
      <point x="258" y="323"/>
      <point x="205" y="343"/>
      <point x="109" y="343" type="curve"/>
      <point x="109" y="323" type="line"/>
      <point x="180" y="322"/>
      <point x="247" y="351"/>
      <point x="247" y="400" type="curve" smooth="yes"/>
      <point x="247" y="450"/>
      <point x="200" y="479"/>
      <point x="136" y="479" type="curve" smooth="yes"/>
      <point x="85" y="479"/>
      <point x="37" y="453"/>
      <point x="11" y="426" type="curve"/>
      <point x="48" y="380" type="line"/>
      <point x="76" y="402"/>
      <point x="106" y="420"/>
      <point x="133" y="420" type="curve" smooth="yes"/>
      <point x="154" y="420"/>
      <point x="171" y="409"/>
      <point x="171" y="393" type="curve" smooth="yes"/>
      <point x="171" y="370"/>
      <point x="145" y="362"/>
      <point x="95" y="362" type="curve" smooth="yes"/>
      <point x="59" y="362" type="line"/>
      <point x="59" y="305" type="line"/>
      <point x="95" y="305" type="line" smooth="yes"/>
      <point x="157" y="305"/>
      <point x="182" y="298"/>
      <point x="182" y="277" type="curve" smooth="yes"/>
      <point x="182" y="259"/>
      <point x="160" y="252"/>
      <point x="135" y="252" type="curve" smooth="yes"/>
      <point x="102" y="252"/>
      <point x="65" y="266"/>
      <point x="39" y="282" type="curve"/>
      <point x="8" y="231" type="line"/>
      <point x="32" y="215"/>
      <point x="71" y="193"/>
      <point x="134" y="193" type="curve" smooth="yes"/>
    </contour>
  </outline>
</glyph>
<glyph name="two.dnom" format="1">
  <advance width="281"/>
  <outline>
    <contour>
      <point x="176" y="101" type="line" smooth="yes"/>
      <point x="231" y="134"/>
      <point x="249" y="161"/>
      <point x="249" y="197" type="curve" smooth="yes"/>
      <point x="249" y="253"/>
      <point x="199" y="282"/>
      <point x="139" y="282" type="curve" smooth="yes"/>
      <point x="89" y="282"/>
      <point x="43" y="256"/>
      <point x="11" y="222" type="curve"/>
      <point x="51" y="177" type="line"/>
      <point x="76" y="203"/>
      <point x="102" y="221"/>
      <point x="134" y="221" type="curve" smooth="yes"/>
      <point x="158" y="221"/>
      <point x="172" y="209"/>
      <point x="172" y="191" type="curve" smooth="yes"/>
      <point x="172" y="177"/>
      <point x="160" y="164"/>
      <point x="127" y="142" type="curve" smooth="yes"/>
      <point x="8" y="61" type="line"/>
      <point x="55" y="28" type="line"/>
    </contour>
    <contour>
      <point x="265" y="0" type="line"/>
      <point x="265" y="97" type="line"/>
      <point x="210" y="97" type="line"/>
      <point x="210" y="61" type="line"/>
      <point x="9" y="61" type="line"/>
      <point x="9" y="0" type="line"/>
    </contour>
  </outline>
</glyph>
<glyph name="x.alt" format="1">
  <advance width="500"/>
  <outline>
    <contour>
      <point x="468" y="77" type="line"/>
      <point x="293" y="209" type="line"/>
      <point x="291" y="209" type="line"/>
      <point x="187" y="282" type="line"/>
      <point x="34" y="282" type="line"/>
      <point x="210" y="148" type="line"/>
      <point x="215" y="148" type="line"/>
      <point x="318" y="77" type="line"/>
    </contour>
    <contour>
      <point x="228" y="-1" type="line"/>
      <point x="228" y="89" type="line"/>
      <point x="11" y="89" type="line"/>
      <point x="11" y="-1" type="line"/>
    </contour>
    <contour>
      <point x="483" y="-1" type="line"/>
      <point x="483" y="89" type="line"/>
      <point x="266" y="89" type="line"/>
      <point x="266" y="-1" type="line"/>
    </contour>
    <contour>
      <point x="160" y="77" type="line"/>
      <point x="264" y="148" type="line"/>
      <point x="274" y="148" type="line"/>
      <point x="462" y="282" type="line"/>
      <point x="343" y="282" type="line"/>
      <point x="238" y="209" type="line"/>
      <point x="227" y="209" type="line"/>
      <point x="40" y="77" type="line"/>
    </contour>
    <contour>
      <point x="228" y="267" type="line"/>
      <point x="228" y="357" type="line"/>
      <point x="11" y="357" type="line"/>
      <point x="11" y="267" type="line"/>
    </contour>
    <contour>
      <point x="483" y="267" type="line"/>
      <point x="483" y="357" type="line"/>
      <point x="266" y="357" type="line"/>
      <point x="266" y="267" type="line"/>
    </contour>
    <contour>
      <point x="249" y="357" type="move" name="top"/>
    </contour>
    <contour>
      <point x="249" y="0" type="move" name="bottom"/>
    </contour>
  </outline>
</glyph>
<glyph name="z.alt" format="1">
  <advance width="521"/>
  <outline>
    <contour>
      <point x="474" y="0" type="line"/>
      <point x="474" y="174" type="line"/>
      <point x="378" y="174" type="line"/>
      <point x="378" y="90" type="line"/>
      <point x="260" y="90" type="line"/>
      <point x="204" y="76" type="line"/>
      <point x="203" y="79" type="line"/>
      <point x="259" y="112" type="line"/>
      <point x="475" y="293" type="line"/>
      <point x="475" y="355" type="line"/>
      <point x="67" y="355" type="line"/>
      <point x="67" y="181" type="line"/>
      <point x="163" y="181" type="line"/>
      <point x="163" y="265" type="line"/>
      <point x="272" y="265" type="line"/>
      <point x="328" y="279" type="line"/>
      <point x="329" y="276" type="line"/>
      <point x="274" y="243" type="line"/>
      <point x="61" y="62" type="line"/>
      <point x="61" y="0" type="line"/>
    </contour>
    <contour>
      <point x="285" y="367" type="move" name="top"/>
    </contour>
    <contour>
      <point x="287" y="-10" type="move" name="bottom"/>
    </contour>
  </outline>
</glyph>
